<?xml version="1.0" encoding="utf-8"?>
<!-- Generator: Adobe Illustrator 22.1.0, SVG Export Plug-In . SVG Version: 6.00 Build 0)  -->
<svg version="1.1" id="Calque_1" xmlns="http://www.w3.org/2000/svg" xmlns:xlink="http://www.w3.org/1999/xlink" x="0px" y="0px"
	 viewBox="0 0 84 94.5" style="enable-background:new 0 0 84 94.5;" xml:space="preserve">
<style type="text/css">
	.st0{fill:none;}
	.st1{fill:#E3212B;}
</style>
<g>
	<path class="st0" d="M67.9,19.8v11.4C68,27.4,67.9,23.6,67.9,19.8z"/>
	<path class="st1" d="M67.9,70.1c0,0.6,0,1.1,0,1.7c0,0.5,0,0.9-0.1,1.4c-0.2,1.4-1.1,2.3-2.3,2.8c-0.6,0.2-1.2,0.2-1.8,0.2
		c-14.1,0-28.1,0-42.1,0c-0.7,0-1.4-0.2-2-0.5c-1.5-0.7-2-2.1-2-3.7c0-0.6,0-1.3,0-1.9c0-3.3,0-6.6,0-10c0-1.3-0.4-2.2-1.3-3
		c-0.4-0.4-0.9-0.8-1.4-1.1c-1.3-0.9-2.7-1.9-4.1-2.8c-1.2-0.8-2.4-1.5-3.8-2.5c0,0.6,0,1,0,1.3c0,8.1,0.1,16.2,0,24.4
		c-0.1,5.1,3.7,9.2,8,10.2c1.2,0.2,2.4,0.3,3.6,0.3c15.5,0,31.1,0,46.6,0c0.9,0,1.7,0,2.6,0c2.4,0,4.6-0.6,6.5-2.1
		c2.5-1.9,4.2-4.3,4.2-7.5c0-8.1,0-16.3,0-24.4c0-3.5-1.5-6.2-4.3-8.1c-2.1-1.4-4.2-2.9-6.3-4.3v16.1C67.9,61,67.9,65.6,67.9,70.1z"
		/>
	<path class="st1" d="M17.6,19.8c0-0.2,0-0.4,0-0.6c0.3-2.2,1.9-3.6,3.8-3.5c0.4,0,0.9,0,1.3,0c13.2,0,26.4,0,39.6,0
		c0.7,0,1.5,0,2.2,0c0.8,0,1.3,0.3,1.9,0.7c1.2,0.9,1.5,2.1,1.5,3.4c0,3.8,0.1,7.6,0,11.4v0.7c0.1,1.5,0.8,2.6,2,3.4
		c2.7,1.8,5.4,3.7,8.1,5.5c0.1,0,0.2,0,0.4,0.1c0.1-0.3,0.1-0.6,0.1-0.8c0-8.4,0-16.8,0-25.2c0-3.1-1.5-5.5-3.8-7.5
		c-2.2-1.9-4.9-2.5-7.7-2.5c-15.7,0-31.5,0-47.2,0c-1,0-2,0.1-3,0.1c-5,0.2-9.8,4.7-9.7,10.4c0,7.6,0,15.1,0,22.7
		c0,1.2,0.1,2.4,0.3,3.5c0.4,2.3,1.8,4,3.6,5.3c1.3,1,2.7,1.9,4,2.8c1.1,0.7,2.6,0,2.6-1.3V35.3C17.6,30.1,17.6,25,17.6,19.8z"/>
	<path d="M67.9,31.9v-0.7C67.9,31.4,67.9,31.6,67.9,31.9z"/>
</g>
</svg>
