<?xml version="1.0" encoding="utf-8"?>
<!-- Generator: Adobe Illustrator 22.1.0, SVG Export Plug-In . SVG Version: 6.00 Build 0)  -->
<svg version="1.1" id="Calque_1" xmlns="http://www.w3.org/2000/svg" xmlns:xlink="http://www.w3.org/1999/xlink" x="0px" y="0px"
	 viewBox="0 0 146 166" style="enable-background:new 0 0 146 166;" xml:space="preserve">
<style type="text/css">
	.st0{fill:#E3212B;}
</style>
<path class="st0" d="M13.8,89.5c2.4,1.6,4.3,2.9,6.3,4.2c2.3,1.6,4.6,3.2,6.9,4.8c0.8,0.6,1.6,1.2,2.4,1.9c1.5,1.3,2.2,2.9,2.2,4.9
	c-0.1,6.6,0,13.2,0,19.8c0,2.7,0.9,5,3.4,6.2c1,0.5,2.2,0.8,3.3,0.8c23.4,0,46.8,0,70.3,0c1,0,2.1,0,3-0.4c2-0.8,3.4-2.3,3.8-4.6
	c0.1-0.8,0.2-1.6,0.2-2.4c0-8.5,0-17,0-25.4c0-1-0.1-2-0.2-3c-0.3-2.1-1.3-3.9-3.1-5.2c-3.5-2.4-7.1-4.9-10.7-7.3
	c-7.7-5.2-15.4-10.3-23-15.5c-1.9-1.3-3.7-2.9-5.4-4.6c-2.2-2.2-3.2-5-3.2-8.2c0-4,0-7.9,0-11.9c0-0.6,0.1-1.3,0.1-2.2
	c2.2,1.5,4.3,2.8,6.3,4.2c11.1,7.6,22.3,15.2,33.4,22.8c5.4,3.7,10.9,7.4,16.3,11.2c4.7,3.2,7.2,7.7,7.2,13.4
	c0,13.6,0.1,27.2,0,40.7c0,5.3-2.9,9.4-6.9,12.6c-3.2,2.5-6.9,3.5-10.9,3.6c-1.4,0-2.9,0-4.3,0c-25.9,0-51.9,0-77.8,0
	c-2,0-4-0.1-6-0.5c-7.2-1.6-13.5-8.5-13.4-17.1c0.1-13.5,0-27,0-40.5C13.8,91.2,13.8,90.6,13.8,89.5z"/>
<path class="st0" d="M133,73.2c-0.3-0.1-0.5-0.1-0.7-0.2c-4.5-3.1-9-6.1-13.5-9.2c-2.4-1.6-3.5-3.9-3.4-6.8c0.1-6.3,0-12.6,0-19
	c0-2.3-0.6-4.3-2.4-5.7c-0.9-0.7-1.9-1.2-3.1-1.2c-1.2,0-2.4,0-3.7,0c-22.1,0-44.1,0-66.2,0c-0.7,0-1.4,0.1-2.2,0
	c-3.2-0.2-5.8,2.2-6.3,5.8c0,0.4,0,0.7,0,1.1c0,8.6,0.1,17.2,0,25.9c0,4.1,1.5,7.1,5,9.4C47.3,80.3,58,87.5,68.7,94.8
	c2,1.4,3.8,3,5.5,4.8c2,2.1,3,4.7,3,7.6c0,4.2,0,8.5,0,12.7c0,0.5-0.1,1-0.2,1.7c-2-1.3-3.8-2.5-5.5-3.7
	c-12.8-8.7-25.6-17.5-38.4-26.2c-4.2-2.9-8.4-5.7-12.6-8.7c-3.1-2.2-5.3-5.1-6.1-8.8c-0.4-1.9-0.6-3.8-0.6-5.8
	c-0.1-12.6,0-25.3,0-37.9c0-9.4,8-16.9,16.3-17.1c1.7-0.1,3.3-0.2,5-0.2c26.3,0,52.6,0,78.9,0c4.7,0,9.2,0.9,12.8,4.1
	c3.8,3.3,6.3,7.3,6.3,12.5c0.1,14,0,28,0,42C133.2,72.2,133.1,72.6,133,73.2z"/>
</svg>
