<?xml version="1.0" encoding="utf-8"?>
<!-- Generator: Adobe Illustrator 22.1.0, SVG Export Plug-In . SVG Version: 6.00 Build 0)  -->
<svg version="1.1" id="Calque_1" xmlns="http://www.w3.org/2000/svg" xmlns:xlink="http://www.w3.org/1999/xlink" x="0px" y="0px"
	 viewBox="0 0 440.9 94.5" style="enable-background:new 0 0 440.9 94.5;" xml:space="preserve">
<style type="text/css">
	.st0{fill:#E3212B;}
	.st1{fill:#383538;}
</style>
<g>
	<path class="st0" d="M7,50.7c1.4,1,2.6,1.7,3.8,2.5c1.4,0.9,2.8,1.9,4.1,2.8c0.5,0.3,1,0.7,1.4,1.1c0.9,0.8,1.3,1.7,1.3,3
		c0,4,0,7.9,0,11.9c0,1.6,0.5,3,2,3.7c0.6,0.3,1.3,0.5,2,0.5c14,0,28,0,42.1,0c0.6,0,1.2,0,1.8-0.2c1.2-0.5,2.1-1.4,2.3-2.8
		c0.1-0.5,0.1-0.9,0.1-1.4c0-5.1,0-10.2,0-15.2c0-0.6-0.1-1.2-0.1-1.8c-0.2-1.3-0.8-2.4-1.9-3.1c-2.1-1.5-4.2-2.9-6.4-4.4
		c-4.6-3.1-9.2-6.2-13.8-9.3c-1.2-0.8-2.2-1.7-3.2-2.8c-1.3-1.3-1.9-3-1.9-4.9c0-2.4,0-4.7,0-7.1c0-0.4,0-0.8,0.1-1.3
		c1.3,0.9,2.5,1.7,3.7,2.5c6.7,4.6,13.3,9.1,20,13.7c3.3,2.2,6.5,4.5,9.8,6.7c2.8,1.9,4.3,4.6,4.3,8.1c0,8.1,0,16.3,0,24.4
		c0,3.2-1.7,5.6-4.2,7.5c-1.9,1.5-4.1,2.1-6.5,2.1c-0.9,0-1.7,0-2.6,0c-15.5,0-31.1,0-46.6,0c-1.2,0-2.4-0.1-3.6-0.3
		c-4.3-1-8.1-5.1-8-10.2C7.1,68.2,7,60.1,7,52C7,51.7,7,51.3,7,50.7z"/>
	<path class="st0" d="M78.4,40.9c-0.2-0.1-0.3-0.1-0.4-0.1c-2.7-1.8-5.4-3.7-8.1-5.5c-1.4-1-2.1-2.3-2-4.1c0.1-3.8,0-7.6,0-11.4
		c0-1.3-0.3-2.5-1.5-3.4c-0.6-0.4-1.1-0.7-1.9-0.7c-0.7,0-1.5,0-2.2,0c-13.2,0-26.4,0-39.6,0c-0.4,0-0.9,0-1.3,0
		c-1.9-0.1-3.5,1.3-3.8,3.5c0,0.2,0,0.4,0,0.6c0,5.2,0,10.3,0,15.5c0,2.4,0.9,4.2,3,5.6c6.5,4.3,12.9,8.6,19.2,13
		c1.2,0.8,2.3,1.8,3.3,2.9c1.2,1.2,1.8,2.8,1.8,4.6c0,2.5,0,5.1,0,7.6c0,0.3-0.1,0.6-0.1,1c-1.2-0.8-2.2-1.5-3.3-2.2
		c-7.7-5.2-15.3-10.5-23-15.7c-2.5-1.7-5-3.4-7.5-5.2c-1.8-1.3-3.2-3-3.6-5.3c-0.2-1.1-0.3-2.3-0.3-3.5c0-7.6,0-15.1,0-22.7
		C7,9.7,11.8,5.2,16.8,5c1,0,2-0.1,3-0.1c15.7,0,31.5,0,47.2,0c2.8,0,5.5,0.6,7.7,2.5c2.3,2,3.8,4.4,3.8,7.5c0,8.4,0,16.8,0,25.2
		C78.5,40.3,78.5,40.6,78.4,40.9z"/>
</g>
<g>
	<path class="st1" d="M417.2,49.6c0.7-1.7,1.3-3.2,1.9-4.7c1.1-3,2.2-6,3.4-9c0.3-0.7,0.6-1.5,1.1-2.2c1.2-1.6,3.2-1.4,4.1,0.3
		c0.3,0.5,0.4,1,0.5,1.5c1.5,5.1,2.5,10.3,3.4,15.5c0.3,1.8,0.5,3.5,0.7,5.3c0.1,1.2-0.7,2.4-1.8,2.8c-1,0.3-1.9,0.1-2.4-0.8
		c-0.4-0.6-0.6-1.4-0.7-2.1c-0.7-4.1-1.4-8.2-2-12.3c-0.1-0.3-0.2-0.6-0.3-1.2c-0.2,0.5-0.4,0.8-0.5,1.1c-1.3,3.5-2.6,7-3.9,10.5
		c-0.2,0.6-0.5,1.2-0.8,1.8c-0.7,1.2-2.1,1.8-3.3,1.2c-0.5-0.2-0.9-0.8-1.2-1.3c-1.7-3.3-3.4-6.6-5.1-10c-0.4-0.8-0.8-1.5-1.5-2.3
		c-0.1,1.3-0.3,2.7-0.4,4c-0.2,2.7-0.4,5.4-0.7,8.1c-0.1,0.6-0.2,1.3-0.4,1.9c-0.5,1.2-1.6,1.7-2.8,1.4c-1.2-0.3-1.8-1-1.8-2.4
		c0.1-2.1,0.3-4.2,0.5-6.3c0.3-3.1,0.6-6.1,0.9-9.2c0.2-2,0.4-4.1,0.7-6.1c0.1-0.7,0.4-1.5,0.9-2c1.1-1,2.6-0.8,3.5,0.5
		c0.5,0.7,0.9,1.5,1.3,2.3c2,4,4,8,6.1,12C416.6,48.7,416.9,49,417.2,49.6z"/>
	<path class="st1" d="M333,44.1c2.5,1.8,2.5,3.6,0,5.4c0,1.9,0,3.8,0,5.8c0,0.7,0,1.4-0.2,2.1c-0.4,1.3-1.4,2.1-2.6,2
		c-1.1-0.1-2-0.9-2.2-2.2c-0.1-0.5-0.1-1.1-0.1-1.6c0-1.9,0-3.9,0-5.8c-1.2-0.4-7-0.5-9.3-0.2c0,0.4-0.1,0.8-0.1,1.2
		c0,1.7,0,3.4,0,5c0,0.6-0.1,1.2-0.3,1.7c-0.3,1-0.9,1.7-2.1,1.7c-1.2,0-2-0.6-2.4-1.6c-0.3-0.6-0.4-1.4-0.4-2.1
		c0-6.6,0-13.1,0-19.7c0-1.3,0.4-2.3,1.5-3.1c1.5-1,3.1-0.4,3.5,1.3c0.1,0.5,0.1,1,0.1,1.5c0,2.2,0,4.4,0,6.7c0,0.5,0,1.1,0,1.7
		c3.2,0,6.2,0,9.3,0c0-0.4,0.1-0.8,0.1-1.2c0-2.2,0-4.4,0-6.7c0-0.7,0.1-1.4,0.4-2.1c0.5-1.2,1.6-1.8,2.9-1.6c1.1,0.2,1.9,1,1.9,2.3
		c0.1,1.6,0,3.3,0,4.9C333,41.1,333,42.6,333,44.1z"/>
	<path class="st1" d="M142.9,44c3.2,0,6.2,0,9.3,0c0-0.5,0.1-0.9,0.1-1.3c0-2.1,0-4.2,0-6.3c0-0.7,0.1-1.4,0.2-2.1
		c0.3-1.3,1.5-2,2.9-1.8c1.2,0.2,2,1,2,2.4c0.1,2.4,0,4.9,0,7.3c0,0.6,0,1.3,0,1.9c2.6,2,2.6,3.8,0,5.4c0,1.3,0,2.7,0,4.1
		c0,1,0,2.1,0,3.1c0,0.8-0.3,1.6-1,2.1c-1.4,1.2-3.4,0.7-3.9-1.1c-0.2-0.7-0.2-1.4-0.2-2.1c0-2,0-3.9,0-5.8
		c-1.2-0.4-6.9-0.5-9.4-0.2c0,0.4-0.1,0.8-0.1,1.2c0,1.7,0,3.5,0,5.2c0,0.4,0,0.9-0.1,1.3c-0.3,1.2-1.2,2-2.2,2
		c-1.2,0-2.3-0.8-2.6-2.1c-0.1-0.5-0.1-1-0.1-1.5c0-6.6,0-13.2,0-19.9c0-1.1,0.2-2,1-2.8c0.8-0.7,1.8-0.9,2.7-0.6
		c1,0.4,1.3,1.3,1.3,2.3c0,2.4,0,4.9,0,7.3C142.9,42.7,142.9,43.3,142.9,44z"/>
	<path class="st1" d="M229.5,51.5c0,1.5,0,2.9,0,4.4c0,0.7,0,1.3,0,1.9c-0.2,1.3-1.1,2.2-2.2,2.2c-1.3,0-2.4-0.9-2.6-2.2
		c-0.1-0.4,0-0.8,0-1.1c0-1.5,0-2.9,0-4.4c0-1.1,0-2.1-0.9-2.9c-0.7-0.6-0.6-1.6-0.1-2.4c0.2-0.4,0.6-0.8,1-1.3c0-2.8,0-5.7,0-8.6
		c0-0.5,0-1,0-1.5c0.2-1.1,0.7-2,1.8-2.3c1.7-0.5,3.4-0.9,5.2-1.3c1.7-0.3,3.4-0.4,5.2,0.1c3.9,1,6.2,3.7,7,7.6c0.8,4-0.7,7.4-4,9.8
		c-1.7,1.3-3.7,2-5.9,2C232.4,51.5,231,51.5,229.5,51.5z M229.5,46.5c2.6,0.5,4.9,0.4,7.1-0.8c1.9-1,2.5-2.8,2.3-4.8
		c-0.2-1.9-1.7-3.6-3.4-4.1c-2.1-0.6-4,0.2-6,0.9C229.5,40.6,229.5,43.5,229.5,46.5z"/>
	<path class="st1" d="M365.6,48.7c0,1.7,0,3.3,0,4.9c0.7,0.1,1.3,0.3,1.9,0.2c2-0.2,4.1-0.4,6.1-0.7c0.8-0.1,1.6-0.2,2.3,0.3
		c0.8,0.5,1.4,1.3,1.3,2.3c-0.1,1-0.7,1.8-1.8,2.1c-2.6,0.7-5.2,0.9-7.9,0.9c-1,0-1.9-0.1-2.9-0.2c-0.5,0-1.1-0.1-1.6-0.2
		c-1.7-0.4-2.4-1.2-2.4-3c0-2,0-3.9,0-5.9c0-3.3,0-6.5,0-9.8c0-0.7-0.1-1.3-0.5-2c-1.1-1.6-0.7-3,1.1-3.6c1.6-0.5,3.3-0.8,4.9-1
		c2.8-0.2,5.5-0.2,8.3-0.3c1.1,0,2.2,0.3,2.7,1.4c0.7,1.3,0.1,2.9-1.5,3.3c-0.9,0.2-1.8,0.2-2.7,0.2c-2.3,0.1-4.5,0.1-6.8,0.2
		c-0.1,0-0.3,0.1-0.5,0.2c0,1.8,0,3.5,0,5.5c1.4,0.1,2.8,0.1,4.1,0c1.2-0.1,2.4-0.2,3.6-0.2c1.6,0,2.4,0.7,2.6,2.1
		c0.1,1.2-0.6,2.3-2,2.5c-1.6,0.3-3.2,0.4-4.8,0.5C368,48.8,366.8,48.7,365.6,48.7z"/>
	<path class="st1" d="M104.1,59.9c-3.9-0.2-7.1-1.5-9.8-3.9c-0.6-0.5-0.8-1.1-0.9-1.8c-0.1-1.9,1.7-3.1,3.4-2.3
		c0.3,0.1,0.6,0.3,0.8,0.6c1.8,1.8,4.1,2.3,6.6,2.3c1.6,0,3-1.2,3.2-2.5c0.2-1.6-0.7-2.9-2.4-3.4c-1.4-0.4-2.8-0.7-4.3-1
		c-2-0.5-3.9-1.2-5.4-2.9c-1.5-1.7-1.9-4.5-0.8-6.5c2.2-4,5.8-5.3,10.1-5.2c1.6,0.1,3.1,0.4,4.6,1.1c1.4,0.6,1.9,1.7,1.5,3
		c-0.4,1.3-1.4,1.9-2.8,1.6c-0.9-0.2-1.8-0.4-2.7-0.6c-1.7-0.5-3.2,0-4.7,0.6c-0.2,0.1-0.5,0.2-0.7,0.4c-1.5,1.2-1.3,2.6,0.5,3.3
		c0.8,0.3,1.7,0.4,2.5,0.6c1.8,0.5,3.6,0.9,5.2,1.7c4.3,2,5.7,7.2,3.1,11C109.3,58.5,106.8,59.7,104.1,59.9z"/>
	<path class="st1" d="M275.7,38c-1.4,0-2.6,0.1-3.7,0c-0.9-0.1-1.8-0.2-2.7-0.4c-1.2-0.3-1.7-1-1.6-1.9c0-0.9,0.8-2.1,1.7-2.4
		c0.4-0.1,0.9-0.2,1.3-0.2c5,0,10.1,0,15.1,0c1.4,0,2.3,0.7,2.7,1.9c0.4,1.4-0.1,2.4-1.5,2.6c-1.5,0.2-3.1,0.2-4.7,0.3
		c-0.5,0-0.9,0-1.6,0c0,0.7,0,1.3,0,1.9c0,5.4,0,10.7,0,16.1c0,0.4,0,0.8,0,1.1c-0.1,1.6-0.6,2.2-1.9,2.3c-1.4,0.1-2.7-0.8-2.9-2
		c-0.1-0.5-0.1-1-0.1-1.5c0-5.4,0-10.7,0-16.1C275.7,39.4,275.7,38.8,275.7,38z"/>
	<path class="st1" d="M188.7,53.8c0-5.4,0-10.6,0-16c-0.6,0-1.1-0.1-1.7-0.1c-1.4-0.2-2.4-1-2.5-2.2c-0.1-1.2,0.9-2.3,2.2-2.6
		c0.3-0.1,0.6-0.1,1-0.1c2.4,0,4.8,0,7.2,0c0.6,0,1.3,0.3,1.8,0.6c0.8,0.5,1.1,1.3,0.9,2.3c-0.1,0.9-0.6,1.5-1.5,1.8
		c-0.7,0.2-1.5,0.3-2.2,0.4c-0.3,1.1-0.4,13.6-0.1,15.9c0.5,0,1.1,0.1,1.7,0.2c1.3,0.2,2.3,1.1,2.3,2.3c0.1,1.1-0.6,2-1.9,2.3
		c-0.9,0.2-1.8,0.3-2.7,0.3c-2.1,0-4.2-0.1-6.3-0.2c-1.1-0.1-1.8-0.7-2.1-1.8c-0.2-1,0-1.9,0.8-2.5c0.4-0.3,0.9-0.4,1.3-0.5
		C187.4,53.8,188,53.8,188.7,53.8z"/>
</g>
</svg>
