<?xml version="1.0" encoding="utf-8"?>
<!-- Generator: Adobe Illustrator 22.1.0, SVG Export Plug-In . SVG Version: 6.00 Build 0)  -->
<svg version="1.1" id="Calque_1" xmlns="http://www.w3.org/2000/svg" xmlns:xlink="http://www.w3.org/1999/xlink" x="0px" y="0px"
	 viewBox="0 0 649 166" style="enable-background:new 0 0 649 166;" xml:space="preserve">
<style type="text/css">
	.st0{fill:#E3212B;}
	.st1{fill:#383538;}
</style>
<path class="st0" d="M13.8,89.5c2.4,1.6,4.3,2.9,6.3,4.2c2.3,1.6,4.6,3.2,6.9,4.8c0.8,0.6,1.6,1.2,2.4,1.9c1.5,1.3,2.2,2.9,2.2,4.9
	c-0.1,6.6,0,13.2,0,19.8c0,2.7,0.9,5,3.4,6.2c1,0.5,2.2,0.8,3.3,0.8c23.4,0,46.8,0,70.3,0c1,0,2.1,0,3-0.4c2-0.8,3.4-2.3,3.8-4.6
	c0.1-0.8,0.2-1.6,0.2-2.4c0-8.5,0-17,0-25.4c0-1-0.1-2-0.2-3c-0.3-2.1-1.3-3.9-3.1-5.2c-3.5-2.4-7.1-4.9-10.7-7.3
	c-7.7-5.2-15.4-10.3-23-15.5c-1.9-1.3-3.7-2.9-5.4-4.6c-2.2-2.2-3.2-5-3.2-8.2c0-4,0-7.9,0-11.9c0-0.6,0.1-1.3,0.1-2.2
	c2.2,1.5,4.3,2.8,6.3,4.2c11.1,7.6,22.3,15.2,33.4,22.8c5.4,3.7,10.9,7.4,16.3,11.2c4.7,3.2,7.2,7.7,7.2,13.4
	c0,13.6,0.1,27.2,0,40.7c0,5.3-2.9,9.4-6.9,12.6c-3.2,2.5-6.9,3.5-10.9,3.6c-1.4,0-2.9,0-4.3,0c-25.9,0-51.9,0-77.8,0
	c-2,0-4-0.1-6-0.5c-7.2-1.6-13.5-8.5-13.4-17.1c0.1-13.5,0-27,0-40.5C13.8,91.2,13.8,90.6,13.8,89.5z"/>
<path class="st0" d="M133,73.2c-0.3-0.1-0.5-0.1-0.7-0.2c-4.5-3.1-9-6.1-13.5-9.2c-2.4-1.6-3.5-3.9-3.4-6.8c0.1-6.3,0-12.6,0-19
	c0-2.3-0.6-4.3-2.4-5.7c-0.9-0.7-1.9-1.2-3.1-1.2c-1.2,0-2.4,0-3.7,0c-22.1,0-44.1,0-66.2,0c-0.7,0-1.4,0.1-2.2,0
	c-3.2-0.2-5.8,2.2-6.3,5.8c0,0.4,0,0.7,0,1.1c0,8.6,0.1,17.2,0,25.9c0,4.1,1.5,7.1,5,9.4C47.3,80.3,58,87.5,68.7,94.8
	c2,1.4,3.8,3,5.5,4.8c2,2.1,3,4.7,3,7.6c0,4.2,0,8.5,0,12.7c0,0.5-0.1,1-0.2,1.7c-2-1.3-3.8-2.5-5.5-3.7
	c-12.8-8.7-25.6-17.5-38.4-26.2c-4.2-2.9-8.4-5.7-12.6-8.7c-3.1-2.2-5.3-5.1-6.1-8.8c-0.4-1.9-0.6-3.8-0.6-5.8
	c-0.1-12.6,0-25.3,0-37.9c0-9.4,8-16.9,16.3-17.1c1.7-0.1,3.3-0.2,5-0.2c26.3,0,52.6,0,78.9,0c4.7,0,9.2,0.9,12.8,4.1
	c3.8,3.3,6.3,7.3,6.3,12.5c0.1,14,0,28,0,42C133.2,72.2,133.1,72.6,133,73.2z"/>
<path class="st1" d="M612.8,100.7c0.9-2.2,1.7-4.2,2.5-6.2c1.5-4,2.9-7.9,4.5-11.9c0.4-1,0.8-2,1.5-2.9c1.5-2.1,4.2-1.9,5.4,0.4
	c0.3,0.6,0.5,1.3,0.7,2c2,6.7,3.3,13.7,4.5,20.6c0.4,2.3,0.7,4.7,0.9,7c0.2,1.6-0.9,3.2-2.4,3.7c-1.3,0.5-2.5,0.1-3.2-1
	c-0.5-0.9-0.7-1.9-0.9-2.8c-0.9-5.4-1.8-10.9-2.7-16.3c-0.1-0.4-0.2-0.8-0.4-1.5c-0.3,0.6-0.6,1-0.7,1.5c-1.7,4.6-3.5,9.3-5.2,13.9
	c-0.3,0.8-0.7,1.6-1.1,2.4c-0.9,1.6-2.7,2.4-4.4,1.6c-0.6-0.3-1.2-1-1.5-1.7c-2.3-4.4-4.5-8.8-6.8-13.2c-0.5-1-1.1-2-1.9-3
	c-0.2,1.8-0.4,3.5-0.6,5.3c-0.3,3.6-0.6,7.1-0.9,10.7c-0.1,0.8-0.2,1.7-0.6,2.5c-0.6,1.5-2.1,2.3-3.7,1.9c-1.6-0.4-2.4-1.3-2.3-3.1
	c0.1-2.8,0.4-5.6,0.6-8.4c0.4-4.1,0.8-8.1,1.2-12.2c0.3-2.7,0.5-5.4,0.9-8.1c0.1-0.9,0.6-2,1.2-2.6c1.4-1.4,3.4-1,4.6,0.7
	c0.7,0.9,1.2,2,1.7,3c2.7,5.3,5.3,10.6,8,15.9C612.1,99.4,612.4,99.9,612.8,100.7z"/>
<path class="st1" d="M501.3,93.4c3.4,2.4,3.3,4.7,0,7.1c0,2.5,0,5.1,0,7.7c0,0.9,0,1.9-0.3,2.8c-0.5,1.8-1.8,2.7-3.5,2.7
	c-1.5-0.1-2.6-1.1-3-2.9c-0.1-0.7-0.1-1.4-0.1-2.1c0-2.6,0-5.2,0-7.7c-1.6-0.5-9.3-0.6-12.4-0.2c0,0.5-0.1,1.1-0.1,1.6
	c0,2.2,0,4.5,0,6.7c0,0.8-0.1,1.6-0.4,2.3c-0.4,1.3-1.2,2.3-2.8,2.3c-1.6,0-2.6-0.8-3.2-2.1c-0.4-0.8-0.5-1.8-0.5-2.7
	c0-8.7,0-17.4,0-26.1c0-1.7,0.5-3.1,2-4c2-1.3,4.1-0.5,4.7,1.8c0.2,0.6,0.1,1.3,0.2,1.9c0,2.9,0,5.9,0,8.8c0,0.7,0,1.4,0,2.2
	c4.2,0,8.2,0,12.3,0c0.1-0.6,0.2-1.1,0.2-1.6c0-2.9,0-5.9,0-8.8c0-0.9,0.2-1.9,0.5-2.7c0.6-1.7,2.1-2.4,3.8-2.1
	c1.4,0.2,2.5,1.4,2.5,3c0.1,2.2,0,4.3,0,6.5C501.3,89.5,501.3,91.4,501.3,93.4z"/>
<path class="st1" d="M249.6,93.3c4.3,0,8.2,0,12.4,0c0.1-0.6,0.2-1.1,0.2-1.7c0-2.8,0-5.6,0-8.4c0-0.9,0.1-1.9,0.3-2.8
	c0.5-1.7,2-2.7,3.8-2.4c1.6,0.2,2.6,1.3,2.7,3.1c0.1,3.2,0,6.5,0,9.7c0,0.9,0,1.7,0,2.5c3.4,2.6,3.4,5,0,7.1c0,1.7,0,3.6,0,5.4
	c0,1.4,0,2.7,0,4.1c0,1.1-0.5,2.1-1.3,2.8c-1.8,1.6-4.5,0.9-5.2-1.4c-0.2-0.9-0.3-1.8-0.3-2.8c0-2.6,0-5.2,0-7.7
	c-1.5-0.5-9.2-0.6-12.4-0.2c0,0.5-0.1,1.1-0.1,1.6c0,2.3,0,4.6,0,6.9c0,0.6,0,1.2-0.1,1.7c-0.4,1.6-1.6,2.7-2.9,2.7
	c-1.6,0.1-3.1-1.1-3.4-2.7c-0.1-0.6-0.1-1.3-0.1-1.9c0-8.8,0-17.5,0-26.3c0-1.4,0.2-2.7,1.4-3.7c1.1-0.9,2.3-1.2,3.6-0.7
	c1.3,0.5,1.7,1.7,1.7,3c0,3.2,0,6.5,0,9.7C249.6,91.6,249.6,92.3,249.6,93.3z"/>
<path class="st1" d="M364.3,103.2c0,2,0,3.9,0,5.8c0,0.9,0.1,1.7-0.1,2.6c-0.2,1.7-1.4,2.8-2.9,2.9c-1.7,0-3.1-1.1-3.4-2.9
	c-0.1-0.5-0.1-1-0.1-1.5c0-1.9,0-3.9,0-5.8c0-1.4,0.1-2.8-1.3-3.9c-1-0.8-0.8-2.1-0.2-3.2c0.3-0.5,0.8-1,1.4-1.7c0-3.6,0-7.5,0-11.4
	c0-0.6-0.1-1.3,0-1.9c0.2-1.4,0.9-2.6,2.4-3c2.3-0.7,4.5-1.2,6.9-1.7c2.3-0.5,4.6-0.5,6.8,0.1c5.2,1.4,8.3,4.9,9.2,10
	c1,5.3-0.9,9.8-5.3,13c-2.3,1.7-4.9,2.6-7.8,2.7C368.2,103.2,366.3,103.2,364.3,103.2z M364.3,96.5c3.4,0.6,6.5,0.6,9.4-1
	c2.5-1.4,3.3-3.6,3-6.4c-0.3-2.5-2.3-4.8-4.5-5.5c-2.8-0.8-5.3,0.3-7.9,1.2C364.3,88.8,364.3,92.6,364.3,96.5z"/>
<path class="st1" d="M544.5,99.5c0,2.3,0,4.3,0,6.5c0.9,0.1,1.7,0.3,2.5,0.3c2.7-0.2,5.4-0.5,8.1-0.9c1.1-0.2,2.1-0.3,3.1,0.4
	c1.1,0.7,1.9,1.7,1.7,3c-0.2,1.4-1,2.3-2.4,2.7c-3.4,1-6.9,1.2-10.4,1.2c-1.3,0-2.6-0.1-3.9-0.2c-0.7-0.1-1.4-0.1-2.1-0.3
	c-2.2-0.5-3.2-1.6-3.2-3.9c0-2.6,0-5.2,0-7.7c0-4.3,0-8.6,0-12.9c0-0.9-0.1-1.8-0.7-2.6c-1.4-2.1-0.9-4,1.5-4.8
	c2.1-0.7,4.3-1.1,6.5-1.3c3.6-0.3,7.3-0.3,11-0.4c1.5,0,2.9,0.4,3.6,1.8c1,1.8,0.1,3.9-1.9,4.4c-1.2,0.3-2.4,0.3-3.6,0.3
	c-3,0.1-6,0.2-9,0.3c-0.2,0-0.4,0.1-0.7,0.3c0,2.3,0,4.7,0,7.3c1.8,0.1,3.6,0.1,5.5-0.1c1.6-0.1,3.1-0.3,4.7-0.3
	c2.1,0,3.2,1,3.4,2.8c0.2,1.6-0.8,3-2.6,3.4c-2.1,0.4-4.3,0.6-6.4,0.7C547.6,99.6,546.1,99.5,544.5,99.5z"/>
<path class="st1" d="M198.2,114.3c-5.2-0.3-9.3-2-12.9-5.1c-0.8-0.7-1.1-1.5-1.2-2.4c-0.2-2.6,2.2-4.1,4.5-3c0.4,0.2,0.8,0.4,1,0.7
	c2.4,2.4,5.5,3,8.7,3c2.1,0,3.9-1.5,4.2-3.4c0.3-2.1-0.9-3.8-3.2-4.5c-1.9-0.5-3.8-0.9-5.6-1.4c-2.7-0.6-5.2-1.6-7.1-3.8
	c-2-2.3-2.6-6-1.1-8.6c2.9-5.2,7.7-7.1,13.4-6.9c2.1,0.1,4.1,0.6,6,1.4c1.8,0.8,2.5,2.2,1.9,3.9c-0.6,1.7-1.8,2.5-3.7,2.1
	c-1.2-0.2-2.4-0.5-3.6-0.8c-2.2-0.6-4.3,0-6.3,0.8c-0.3,0.1-0.6,0.3-0.9,0.6c-2,1.6-1.8,3.5,0.6,4.4c1.1,0.4,2.2,0.5,3.3,0.8
	c2.3,0.7,4.8,1.2,6.9,2.2c5.6,2.7,7.6,9.5,4.1,14.6C205.2,112.4,201.8,114,198.2,114.3z"/>
<path class="st1" d="M425.4,85.4c-1.8,0-3.4,0.1-4.9,0c-1.2-0.1-2.4-0.2-3.6-0.5c-1.6-0.4-2.2-1.3-2.2-2.6c0.1-1.3,1.1-2.8,2.3-3.1
	c0.5-0.2,1.1-0.2,1.7-0.2c6.7,0,13.4-0.1,20-0.1c1.8,0,3,0.9,3.5,2.6c0.6,1.8-0.1,3.2-2,3.5c-2,0.3-4.1,0.3-6.2,0.4
	c-0.6,0-1.3,0-2.1,0c0,1,0,1.7,0,2.5c0,7.1,0,14.2,0,21.3c0,0.5,0,1,0,1.5c-0.1,2.1-0.8,2.9-2.5,3.1c-1.8,0.2-3.5-1-3.9-2.7
	c-0.1-0.6-0.1-1.3-0.1-1.9c0-7.1,0-14.2,0-21.3C425.4,87.1,425.4,86.4,425.4,85.4z"/>
<path class="st1" d="M310.3,106.2c0-7.2,0-14.1,0-21.1c-0.8-0.1-1.5-0.1-2.2-0.2c-1.9-0.2-3.2-1.4-3.3-2.9c-0.1-1.6,1.1-3.1,2.9-3.5
	c0.4-0.1,0.9-0.1,1.3-0.1c3.2,0,6.3,0,9.5,0c0.8,0,1.7,0.3,2.4,0.7c1.1,0.6,1.4,1.8,1.2,3c-0.1,1.2-0.8,2-1.9,2.3
	c-1,0.3-2,0.4-3,0.5c-0.4,1.4-0.5,18-0.1,21.1c0.7,0.1,1.5,0.1,2.3,0.2c1.7,0.2,3,1.5,3.1,3.1c0.1,1.4-0.8,2.6-2.6,3
	c-1.2,0.3-2.4,0.4-3.6,0.4c-2.8,0-5.6-0.1-8.4-0.3c-1.5-0.1-2.4-1-2.7-2.3c-0.3-1.3,0-2.5,1.1-3.3c0.5-0.4,1.2-0.5,1.8-0.6
	C308.6,106.3,309.4,106.3,310.3,106.2z"/>
</svg>
