<?xml version="1.0" encoding="utf-8"?>
<!-- Generator: Adobe Illustrator 22.1.0, SVG Export Plug-In . SVG Version: 6.00 Build 0)  -->
<svg version="1.1" id="Calque_1" xmlns="http://www.w3.org/2000/svg" xmlns:xlink="http://www.w3.org/1999/xlink" x="0px" y="0px"
	 viewBox="0 0 365 227" style="enable-background:new 0 0 365 227;" xml:space="preserve">
<style type="text/css">
	.st0{fill:#E3212B;}
	.st1{fill:#383538;}
</style>
<g>
	<path class="st0" d="M121.7,89.5c2.4,1.6,4.3,2.9,6.3,4.2c2.3,1.6,4.6,3.2,6.9,4.8c0.8,0.6,1.6,1.2,2.4,1.9
		c1.5,1.3,2.2,2.9,2.2,4.9c-0.1,6.6,0,13.2,0,19.8c0,2.7,0.9,5,3.4,6.2c1,0.5,2.2,0.8,3.3,0.8c23.4,0,46.8,0,70.3,0c1,0,2.1,0,3-0.4
		c2-0.8,3.4-2.3,3.8-4.6c0.1-0.8,0.2-1.6,0.2-2.4c0-8.5,0-17,0-25.4c0-1-0.1-2-0.2-3c-0.3-2.1-1.3-3.9-3.1-5.2
		c-3.5-2.4-7.1-4.9-10.7-7.3c-7.7-5.2-15.4-10.3-23-15.5c-1.9-1.3-3.7-2.9-5.4-4.6c-2.2-2.2-3.2-5-3.2-8.2c0-4,0-7.9,0-11.9
		c0-0.6,0.1-1.3,0.1-2.2c2.2,1.5,4.3,2.8,6.3,4.2c11.1,7.6,22.3,15.2,33.4,22.8c5.4,3.7,10.9,7.4,16.3,11.2
		c4.7,3.2,7.2,7.7,7.2,13.4c0,13.6,0.1,27.2,0,40.7c0,5.3-2.9,9.4-6.9,12.6c-3.2,2.5-6.9,3.5-10.9,3.6c-1.4,0-2.9,0-4.3,0
		c-25.9,0-51.9,0-77.8,0c-2,0-4-0.1-6-0.5c-7.2-1.6-13.5-8.5-13.4-17.1c0.1-13.5,0-27,0-40.5C121.7,91.2,121.7,90.6,121.7,89.5z"/>
	<path class="st0" d="M240.9,73.2c-0.3-0.1-0.5-0.1-0.7-0.2c-4.5-3.1-9-6.1-13.5-9.2c-2.4-1.6-3.5-3.9-3.4-6.8c0.1-6.3,0-12.6,0-19
		c0-2.3-0.6-4.3-2.4-5.7c-0.9-0.7-1.9-1.2-3.1-1.2c-1.2,0-2.4,0-3.7,0c-22.1,0-44.1,0-66.2,0c-0.7,0-1.4,0.1-2.2,0
		c-3.2-0.2-5.8,2.2-6.3,5.8c0,0.4,0,0.7,0,1.1c0,8.6,0.1,17.2,0,25.9c0,4.1,1.5,7.1,5,9.4c10.8,7.1,21.5,14.4,32.1,21.6
		c2,1.4,3.8,3,5.5,4.8c2,2.1,3,4.7,3,7.6c0,4.2,0,8.5,0,12.7c0,0.5-0.1,1-0.2,1.7c-2-1.3-3.8-2.5-5.5-3.7
		c-12.8-8.7-25.6-17.5-38.4-26.2c-4.2-2.9-8.4-5.7-12.6-8.7c-3.1-2.2-5.3-5.1-6.1-8.8c-0.4-1.9-0.6-3.8-0.6-5.8
		c-0.1-12.6,0-25.3,0-37.9c0-9.4,8-16.9,16.3-17.1c1.7-0.1,3.3-0.2,5-0.2c26.3,0,52.6,0,78.9,0c4.7,0,9.2,0.9,12.8,4.1
		c3.8,3.3,6.3,7.3,6.3,12.5c0.1,14,0,28,0,42C241,72.2,240.9,72.6,240.9,73.2z"/>
</g>
<g>
	<path class="st1" d="M335.7,204.5c0.7-1.7,1.3-3.2,1.9-4.7c1.1-3,2.2-6,3.4-9c0.3-0.7,0.6-1.5,1.1-2.2c1.2-1.6,3.2-1.4,4.1,0.3
		c0.3,0.5,0.4,1,0.5,1.5c1.5,5.1,2.5,10.3,3.4,15.5c0.3,1.8,0.5,3.5,0.7,5.3c0.1,1.2-0.7,2.4-1.8,2.8c-1,0.3-1.9,0.1-2.4-0.8
		c-0.4-0.6-0.6-1.4-0.7-2.1c-0.7-4.1-1.4-8.2-2-12.3c-0.1-0.3-0.2-0.6-0.3-1.2c-0.2,0.5-0.4,0.8-0.5,1.1c-1.3,3.5-2.6,7-3.9,10.5
		c-0.2,0.6-0.5,1.2-0.8,1.8c-0.7,1.2-2.1,1.8-3.3,1.2c-0.5-0.2-0.9-0.8-1.2-1.3c-1.7-3.3-3.4-6.6-5.1-10c-0.4-0.8-0.8-1.5-1.5-2.3
		c-0.1,1.3-0.3,2.7-0.4,4c-0.2,2.7-0.4,5.4-0.7,8.1c-0.1,0.6-0.2,1.3-0.4,1.9c-0.5,1.2-1.6,1.7-2.8,1.4c-1.2-0.3-1.8-1-1.8-2.4
		c0.1-2.1,0.3-4.2,0.5-6.3c0.3-3.1,0.6-6.1,0.9-9.2c0.2-2,0.4-4.1,0.7-6.1c0.1-0.7,0.4-1.5,0.9-2c1.1-1,2.6-0.8,3.5,0.5
		c0.5,0.7,0.9,1.5,1.3,2.3c2,4,4,8,6.1,12C335.1,203.5,335.4,203.9,335.7,204.5z"/>
	<path class="st1" d="M251.5,199c2.5,1.8,2.5,3.6,0,5.4c0,1.9,0,3.8,0,5.8c0,0.7,0,1.4-0.2,2.1c-0.4,1.3-1.4,2.1-2.6,2
		c-1.1-0.1-2-0.9-2.2-2.2c-0.1-0.5-0.1-1.1-0.1-1.6c0-1.9,0-3.9,0-5.8c-1.2-0.4-7-0.5-9.3-0.2c0,0.4-0.1,0.8-0.1,1.2
		c0,1.7,0,3.4,0,5c0,0.6-0.1,1.2-0.3,1.7c-0.3,1-0.9,1.7-2.1,1.7c-1.2,0-2-0.6-2.4-1.6c-0.3-0.6-0.4-1.4-0.4-2.1
		c0-6.6,0-13.1,0-19.7c0-1.3,0.4-2.3,1.5-3.1c1.5-1,3.1-0.4,3.5,1.3c0.1,0.5,0.1,1,0.1,1.5c0,2.2,0,4.4,0,6.7c0,0.5,0,1.1,0,1.7
		c3.2,0,6.2,0,9.3,0c0-0.4,0.1-0.8,0.1-1.2c0-2.2,0-4.4,0-6.7c0-0.7,0.1-1.4,0.4-2.1c0.5-1.2,1.6-1.8,2.9-1.6c1.1,0.2,1.9,1,1.9,2.3
		c0.1,1.6,0,3.3,0,4.9C251.5,196,251.5,197.5,251.5,199z"/>
	<path class="st1" d="M61.4,198.9c3.2,0,6.2,0,9.3,0c0-0.5,0.1-0.9,0.1-1.3c0-2.1,0-4.2,0-6.3c0-0.7,0.1-1.4,0.2-2.1
		c0.3-1.3,1.5-2,2.9-1.8c1.2,0.2,2,1,2,2.4c0.1,2.4,0,4.9,0,7.3c0,0.6,0,1.3,0,1.9c2.6,2,2.6,3.8,0,5.4c0,1.3,0,2.7,0,4.1
		c0,1,0,2.1,0,3.1c0,0.8-0.3,1.6-1,2.1c-1.4,1.2-3.4,0.7-3.9-1.1c-0.2-0.7-0.2-1.4-0.2-2.1c0-2,0-3.9,0-5.8
		c-1.2-0.4-6.9-0.5-9.4-0.2c0,0.4-0.1,0.8-0.1,1.2c0,1.7,0,3.5,0,5.2c0,0.4,0,0.9-0.1,1.3c-0.3,1.2-1.2,2-2.2,2
		c-1.2,0-2.3-0.8-2.6-2.1c-0.1-0.5-0.1-1-0.1-1.5c0-6.6,0-13.2,0-19.9c0-1.1,0.2-2,1-2.8c0.8-0.7,1.8-0.9,2.7-0.6
		c1,0.4,1.3,1.3,1.3,2.3c0,2.4,0,4.9,0,7.3C61.4,197.6,61.4,198.1,61.4,198.9z"/>
	<path class="st1" d="M147.9,206.3c0,1.5,0,2.9,0,4.4c0,0.7,0,1.3,0,1.9c-0.2,1.3-1.1,2.2-2.2,2.2c-1.3,0-2.4-0.9-2.6-2.2
		c-0.1-0.4,0-0.8,0-1.1c0-1.5,0-2.9,0-4.4c0-1.1,0-2.1-0.9-2.9c-0.7-0.6-0.6-1.6-0.1-2.4c0.2-0.4,0.6-0.8,1-1.3c0-2.8,0-5.7,0-8.6
		c0-0.5,0-1,0-1.5c0.2-1.1,0.7-2,1.8-2.3c1.7-0.5,3.4-0.9,5.2-1.3c1.7-0.3,3.4-0.4,5.2,0.1c3.9,1,6.2,3.7,7,7.6c0.8,4-0.7,7.4-4,9.8
		c-1.7,1.3-3.7,2-5.9,2C150.9,206.4,149.5,206.3,147.9,206.3z M148,201.3c2.6,0.5,4.9,0.4,7.1-0.8c1.9-1,2.5-2.8,2.3-4.8
		c-0.2-1.9-1.7-3.6-3.4-4.1c-2.1-0.6-4,0.2-6,0.9C148,195.5,148,198.4,148,201.3z"/>
	<path class="st1" d="M284.1,203.6c0,1.7,0,3.3,0,4.9c0.7,0.1,1.3,0.3,1.9,0.2c2-0.2,4.1-0.4,6.1-0.7c0.8-0.1,1.6-0.2,2.3,0.3
		c0.8,0.5,1.4,1.3,1.3,2.3c-0.1,1-0.7,1.8-1.8,2.1c-2.6,0.7-5.2,0.9-7.9,0.9c-1,0-1.9-0.1-2.9-0.2c-0.5,0-1.1-0.1-1.6-0.2
		c-1.7-0.4-2.4-1.2-2.4-3c0-2,0-3.9,0-5.9c0-3.3,0-6.5,0-9.8c0-0.7-0.1-1.3-0.5-2c-1.1-1.6-0.7-3,1.1-3.6c1.6-0.5,3.3-0.8,4.9-1
		c2.8-0.2,5.5-0.2,8.3-0.3c1.1,0,2.2,0.3,2.7,1.4c0.7,1.3,0.1,2.9-1.5,3.3c-0.9,0.2-1.8,0.2-2.7,0.2c-2.3,0.1-4.5,0.1-6.8,0.2
		c-0.1,0-0.3,0.1-0.5,0.2c0,1.8,0,3.5,0,5.5c1.4,0.1,2.8,0.1,4.1,0c1.2-0.1,2.4-0.2,3.6-0.2c1.6,0,2.4,0.7,2.6,2.1
		c0.1,1.2-0.6,2.3-2,2.5c-1.6,0.3-3.2,0.4-4.8,0.5C286.5,203.7,285.3,203.6,284.1,203.6z"/>
	<path class="st1" d="M22.5,214.7c-3.9-0.2-7.1-1.5-9.8-3.9c-0.6-0.5-0.8-1.1-0.9-1.8c-0.1-1.9,1.7-3.1,3.4-2.3
		c0.3,0.1,0.6,0.3,0.8,0.6c1.8,1.8,4.1,2.3,6.6,2.3c1.6,0,3-1.2,3.2-2.5c0.2-1.6-0.7-2.9-2.4-3.4c-1.4-0.4-2.8-0.7-4.3-1
		c-2-0.5-3.9-1.2-5.4-2.9c-1.5-1.7-1.9-4.5-0.8-6.5c2.2-4,5.8-5.3,10.1-5.2c1.6,0.1,3.1,0.4,4.6,1.1c1.4,0.6,1.9,1.7,1.5,3
		c-0.4,1.3-1.4,1.9-2.8,1.6c-0.9-0.2-1.8-0.4-2.7-0.6c-1.7-0.5-3.2,0-4.7,0.6c-0.2,0.1-0.5,0.2-0.7,0.4c-1.5,1.2-1.3,2.6,0.5,3.3
		c0.8,0.3,1.7,0.4,2.5,0.6c1.8,0.5,3.6,0.9,5.2,1.7c4.3,2,5.7,7.2,3.1,11C27.8,213.3,25.3,214.5,22.5,214.7z"/>
	<path class="st1" d="M194.2,192.9c-1.4,0-2.6,0.1-3.7,0c-0.9-0.1-1.8-0.2-2.7-0.4c-1.2-0.3-1.7-1-1.6-1.9c0-0.9,0.8-2.1,1.7-2.4
		c0.4-0.1,0.9-0.2,1.3-0.2c5,0,10.1,0,15.1,0c1.4,0,2.3,0.7,2.7,1.9c0.4,1.4-0.1,2.4-1.5,2.6c-1.5,0.2-3.1,0.2-4.7,0.3
		c-0.5,0-0.9,0-1.6,0c0,0.7,0,1.3,0,1.9c0,5.4,0,10.7,0,16.1c0,0.4,0,0.8,0,1.1c-0.1,1.6-0.6,2.2-1.9,2.3c-1.4,0.1-2.7-0.8-2.9-2
		c-0.1-0.5-0.1-1-0.1-1.5c0-5.4,0-10.7,0-16.1C194.2,194.2,194.2,193.7,194.2,192.9z"/>
	<path class="st1" d="M107.2,208.7c0-5.4,0-10.6,0-16c-0.6,0-1.1-0.1-1.7-0.1c-1.4-0.2-2.4-1-2.5-2.2c-0.1-1.2,0.9-2.3,2.2-2.6
		c0.3-0.1,0.6-0.1,1-0.1c2.4,0,4.8,0,7.2,0c0.6,0,1.3,0.3,1.8,0.6c0.8,0.5,1.1,1.3,0.9,2.3c-0.1,0.9-0.6,1.5-1.5,1.8
		c-0.7,0.2-1.5,0.3-2.2,0.4c-0.3,1.1-0.4,13.6-0.1,15.9c0.5,0,1.1,0.1,1.7,0.2c1.3,0.2,2.3,1.1,2.3,2.3c0.1,1.1-0.6,2-1.9,2.3
		c-0.9,0.2-1.8,0.3-2.7,0.3c-2.1,0-4.2-0.1-6.3-0.2c-1.1-0.1-1.8-0.7-2.1-1.8c-0.2-1,0-1.9,0.8-2.5c0.4-0.3,0.9-0.4,1.3-0.5
		C105.9,208.7,106.5,208.7,107.2,208.7z"/>
</g>
</svg>
