<?xml version="1.0" encoding="utf-8"?>
<!-- Generator: Adobe Illustrator 22.1.0, SVG Export Plug-In . SVG Version: 6.00 Build 0)  -->
<svg version="1.1" id="Calque_1" xmlns="http://www.w3.org/2000/svg" xmlns:xlink="http://www.w3.org/1999/xlink" x="0px" y="0px"
	 viewBox="0 0 69 78" style="enable-background:new 0 0 69 78;" xml:space="preserve">
<g>
	<path d="M20.6,33c-0.2,1.2-0.2,2.3-0.5,3.3c-0.1,0.4-0.5,0.9-0.8,1c-0.4,0-1-0.3-1.2-0.6c-2-3-3.9-6.1-5.8-9.2
		c-0.8-1.3-0.1-2.4,1.4-2.4c3.6,0,7.2,0,10.8,0c0.4,0,1,0.3,1.1,0.7c0.1,0.3-0.1,0.9-0.4,1.2c-0.7,0.7-1.4,1.2-2.3,1.9
		c3.5,2,6.4,4.4,8.9,7.7c0-4.2,0-8.1,0-12.2c-0.9,0.4-1.7,0.8-2.6,1c-0.5,0.1-1.2,0.1-1.5-0.2c-0.3-0.3-0.2-1.1,0-1.5
		c1.7-3.1,3.4-6.2,5.1-9.3c0.7-1.3,2.1-1.3,2.8,0c1.8,3.1,3.5,6.3,5.2,9.5c0.2,0.4,0.2,1.1-0.1,1.3c-0.2,0.3-0.9,0.3-1.3,0.2
		c-0.9-0.2-1.7-0.6-2.7-1c0,4,0,8,0,12.1c2.5-3.2,5.4-5.6,8.9-7.6c-0.8-0.6-1.5-1.1-2-1.7c-0.3-0.4-0.7-1-0.6-1.4
		c0.1-0.3,0.8-0.7,1.3-0.7c3.5-0.1,7,0,10.5,0c1.6,0,2.2,1.2,1.4,2.5c-1.9,3-3.7,6-5.6,9c-0.2,0.4-0.9,0.7-1.3,0.6
		c-0.4-0.1-0.7-0.7-0.8-1.2c-0.2-0.9-0.3-1.9-0.4-3c-6,3.6-10.3,8.3-10.7,15.4c-2.1,0-4.2,0-6.4,0C31,41.2,26.7,36.6,20.6,33z"/>
	<path d="M34.5,64.7c-4.2,0-7.4-3.2-7.4-7.4c0-4.1,3.4-7.5,7.5-7.5c4.1,0.1,7.4,3.4,7.4,7.5C42,61.5,38.6,64.7,34.5,64.7z M32,57.3
		c0,1.4,1,2.6,2.4,2.6c1.4,0,2.6-1.1,2.6-2.4c0.1-1.4-1.1-2.6-2.5-2.7C33.2,54.7,32,55.9,32,57.3z"/>
</g>
</svg>
