<?xml version="1.0" encoding="utf-8"?>
<!-- Generator: Adobe Illustrator 22.1.0, SVG Export Plug-In . SVG Version: 6.00 Build 0)  -->
<svg version="1.1" id="Calque_1" xmlns="http://www.w3.org/2000/svg" xmlns:xlink="http://www.w3.org/1999/xlink" x="0px" y="0px"
	 viewBox="0 0 69 78" style="enable-background:new 0 0 69 78;" xml:space="preserve">
<g>
	<path d="M18.3,46.8c-0.6-4,0.9-7.1,4.6-8.9c1.5-0.7,3-1.2,4.6-1.8c0.9-0.3,1.7-0.6,2.6-1c1.7-0.7,2.5-1.9,2.4-3.8
		c-0.1-1.7,0-3.3,0-5.2c-1,0.4-1.7,0.7-2.5,0.9c-0.3,0.1-0.8,0.1-1-0.1c-0.2-0.3-0.3-0.8-0.1-1.1c1.5-2.8,3.1-5.6,4.7-8.4
		c0.5-0.8,1.6-0.8,2.1,0.1c1.6,2.7,3.1,5.5,4.6,8.3c0.1,0.3,0.1,0.8-0.1,1.1c-0.1,0.2-0.7,0.2-1,0.2c-0.8-0.2-1.5-0.6-2.7-1
		c0.1,2.5,0.1,4.8,0.4,7c0.1,0.8,1.2,1.6,2,2c1.2,0.7,2.6,1,3.9,1.5c1.1,0.4,2.3,0.8,3.3,1.3c3.6,1.8,5.1,4.8,4.6,8.9
		c-1.3,0-2.5,0-4,0c0-0.4,0-0.9,0-1.4c0-1.7-0.8-3.1-2.3-3.7c-2.5-1.1-5.1-2-7.8-3c0,2.8,0,5.5,0,8.2c-1.4,0-2.7,0-4.1,0
		c0-2.7,0-5.3,0-8.2c-2.8,1.1-5.4,2-7.9,3.1c-1.5,0.7-2.2,2-2.2,3.7c0,0.5,0,0.9,0,1.4C20.9,46.8,19.6,46.8,18.3,46.8z"/>
	<path d="M20.3,48.4c3.5,0,6.3,2.9,6.3,6.3c0,3.5-2.9,6.3-6.3,6.3c-3.5,0-6.3-2.9-6.3-6.4C13.9,51.2,16.8,48.4,20.3,48.4z M20.2,57
		c1.2,0,2.3-1.1,2.3-2.3c0-1.2-1.1-2.2-2.2-2.2c-1.2,0-2.3,1.1-2.3,2.3C18,55.9,19.1,57,20.2,57z"/>
	<path d="M42.5,54.7c0-3.5,2.8-6.3,6.3-6.3c3.5,0,6.3,2.8,6.3,6.3c0,3.5-2.8,6.3-6.3,6.3C45.3,61.1,42.5,58.2,42.5,54.7z M48.7,52.5
		c-1.2,0-2.2,1-2.2,2.3c0,1.2,1,2.2,2.2,2.2c1.2,0,2.3-1.1,2.2-2.3C50.9,53.4,49.9,52.4,48.7,52.5z"/>
	<path d="M40.8,54.8c0,3.5-2.8,6.4-6.3,6.3c-3.5,0-6.3-2.8-6.2-6.4c0-3.5,2.8-6.3,6.3-6.3C38.1,48.4,40.8,51.2,40.8,54.8z
		 M34.5,52.5c-1.2,0-2.2,1-2.2,2.2c0,1.2,0.9,2.3,2.1,2.3c1.2,0.1,2.2-0.9,2.3-2.1C36.8,53.6,35.8,52.5,34.5,52.5z"/>
</g>
</svg>
