<?xml version="1.0" encoding="iso-8859-1"?>
<!-- Generator: Adobe Illustrator 21.0.0, SVG Export Plug-In . SVG Version: 6.00 Build 0)  -->
<svg version="1.1" id="Capa_1" xmlns="http://www.w3.org/2000/svg" xmlns:xlink="http://www.w3.org/1999/xlink" x="0px" y="0px"
	 viewBox="0 0 512 512" style="enable-background:new 0 0 512 512;" xml:space="preserve">
<g>
	<g>
		<path d="M407.557,230.595l-99.697-99.698c5.331-8.986,8.404-19.462,8.404-30.646h-30c0,16.688-13.576,30.264-30.264,30.264
			c-16.688,0-30.264-13.576-30.264-30.264c0-16.688,13.577-30.264,30.264-30.264h15V0h-30v41.877
			c-25.997,6.683-45.264,30.32-45.264,58.374c0,11.184,3.073,21.66,8.404,30.646l-99.697,99.698H0V512h512V230.595H407.557z
			 M68.857,482H30V260.595h38.857V482z M137.714,482H98.857V260.595h38.857V482z M206.571,482h-38.857V260.595h38.857V482z
			 M275.428,482h-38.857V260.595h38.857V482z M344.286,482h-38.857V260.595h38.857V482z M146.869,230.594l78.484-78.484
			c8.986,5.331,19.463,8.404,30.647,8.404s21.661-3.073,30.647-8.404l78.484,78.484H146.869z M413.142,482h-38.856V260.595h38.856
			V482z M482,482h-38.857V260.595H482V482z"/>
	</g>
</g>
<g>
</g>
<g>
</g>
<g>
</g>
<g>
</g>
<g>
</g>
<g>
</g>
<g>
</g>
<g>
</g>
<g>
</g>
<g>
</g>
<g>
</g>
<g>
</g>
<g>
</g>
<g>
</g>
<g>
</g>
</svg>
