<?xml version="1.0" encoding="iso-8859-1"?>
<!-- Generator: Adobe Illustrator 17.1.0, SVG Export Plug-In . SVG Version: 6.00 Build 0)  -->
<!DOCTYPE svg PUBLIC "-//W3C//DTD SVG 1.1//EN" "http://www.w3.org/Graphics/SVG/1.1/DTD/svg11.dtd">
<svg version="1.1" id="Capa_1" xmlns="http://www.w3.org/2000/svg" xmlns:xlink="http://www.w3.org/1999/xlink" x="0px" y="0px"
	 viewBox="0 0 198.491 198.491" style="enable-background:new 0 0 198.491 198.491;" xml:space="preserve">
<path d="M112.807,95.937c20.774-9.198,35.557-39.306,36.855-74.213h8.458c2.761,0,5-2.239,5-5V5c0-2.761-2.239-5-5-5H40.37
	c-2.761,0-5,2.239-5,5v11.724c0,2.761,2.239,5,5,5h8.458c1.299,34.907,16.081,65.014,36.855,74.213
	c1.366,0.605,2.248,1.903,2.248,3.309c0,1.405-0.882,2.703-2.248,3.308c-20.774,9.199-35.557,39.306-36.855,74.213H40.37
	c-2.761,0-5,2.239-5,5v11.724c0,2.761,2.239,5,5,5h117.75c2.761,0,5-2.239,5-5v-11.724c0-2.761-2.239-5-5-5h-8.458
	c-1.299-34.906-16.081-65.014-36.855-74.213c-1.366-0.605-2.248-1.903-2.248-3.308C110.559,97.84,111.441,96.542,112.807,95.937z
	 M88.378,82.034c-3.317-1.95-7.086-5.792-10.479-9.828c6.066,1.465,13.464,2.681,21.306,2.681c8.115,0,15.769-1.303,21.964-2.835
	c-2.989,3.508-6.72,7.227-11.077,10.273c-1.767,1.235-5.555,2.678-10.415,2.678C96.826,85.003,92.552,84.488,88.378,82.034z
	 M63.322,173.014c0.009-0.519,0.022-1.08,0.04-1.684c0.071-2.455,0.721-7.242,1.296-10.5c0.031-0.179,0.162-0.325,0.342-0.381
	l31.357-9.854c0.935-0.293,1.905-0.442,2.885-0.442s1.951,0.149,2.885,0.442l31.259,9.823c0.184,0.058,0.316,0.209,0.344,0.396
	c0.229,1.522,0.567,3.88,0.882,6.47c0.236,1.943,0.366,3.973,0.437,5.731H63.322z"/>
<g>
</g>
<g>
</g>
<g>
</g>
<g>
</g>
<g>
</g>
<g>
</g>
<g>
</g>
<g>
</g>
<g>
</g>
<g>
</g>
<g>
</g>
<g>
</g>
<g>
</g>
<g>
</g>
<g>
</g>
</svg>
