<?xml version="1.0" encoding="iso-8859-1"?>
<!-- Generator: Adobe Illustrator 19.0.0, SVG Export Plug-In . SVG Version: 6.00 Build 0)  -->
<svg version="1.1" id="Layer_1" xmlns="http://www.w3.org/2000/svg" xmlns:xlink="http://www.w3.org/1999/xlink" x="0px" y="0px"
	 viewBox="0 0 512 512" style="enable-background:new 0 0 512 512;" xml:space="preserve">
<g>
	<g>
		<path d="M300.138,13.241h-6.262C290.469,5.45,282.703,0,273.655,0h-36.782c-9.047,0-16.814,5.45-20.221,13.241h-6.262
			c-12.188,0-22.069,10.052-22.069,22.24c0,2.456,0.418,4.243,1.158,7.186h131.569c0.74-2.943,1.158-4.73,1.158-7.186
			C322.207,23.293,312.326,13.241,300.138,13.241z"/>
	</g>
</g>
<g>
	<g>
		<path d="M414.117,64.736H395.77v390.977c0,6.094-4.374,10.678-10.468,10.678H126.698c-6.095,0-10.468-4.584-10.468-10.678V64.736
			H97.883c-18.481,0-33.148,14.693-33.148,33.174V479.2c0,18.481,14.667,32.8,33.148,32.8h316.234
			c18.482,0,33.148-14.32,33.148-32.8V97.91C447.264,79.429,432.597,64.736,414.117,64.736z"/>
	</g>
</g>
<g>
	<g>
		<path d="M138.299,64.736v379.586h235.402V64.736H138.299z M195.678,279.54h-10.299c-6.095,0-11.034-4.94-11.034-11.034
			s4.939-11.034,11.034-11.034h10.299c6.095,0,11.034,4.94,11.034,11.034S201.774,279.54,195.678,279.54z M195.678,226.575h-10.299
			c-6.095,0-11.034-4.94-11.034-11.034s4.939-11.034,11.034-11.034h10.299c6.095,0,11.034,4.94,11.034,11.034
			S201.774,226.575,195.678,226.575z M195.678,173.609h-10.299c-6.095,0-11.034-4.94-11.034-11.034s4.939-11.034,11.034-11.034
			h10.299c6.095,0,11.034,4.94,11.034,11.034S201.774,173.609,195.678,173.609z M326.621,279.54h-75.034
			c-6.095,0-11.034-4.94-11.034-11.034s4.939-11.034,11.034-11.034h75.034c6.095,0,11.034,4.94,11.034,11.034
			S332.716,279.54,326.621,279.54z M326.621,226.575h-75.034c-6.095,0-11.034-4.94-11.034-11.034s4.939-11.034,11.034-11.034h75.034
			c6.095,0,11.034,4.94,11.034,11.034S332.716,226.575,326.621,226.575z M326.621,173.609h-75.034
			c-6.095,0-11.034-4.94-11.034-11.034s4.939-11.034,11.034-11.034h75.034c6.095,0,11.034,4.94,11.034,11.034
			S332.716,173.609,326.621,173.609z"/>
	</g>
</g>
<g>
</g>
<g>
</g>
<g>
</g>
<g>
</g>
<g>
</g>
<g>
</g>
<g>
</g>
<g>
</g>
<g>
</g>
<g>
</g>
<g>
</g>
<g>
</g>
<g>
</g>
<g>
</g>
<g>
</g>
</svg>
