<?xml version="1.0" encoding="utf-8"?>
<!-- Generator: Adobe Illustrator 22.1.0, SVG Export Plug-In . SVG Version: 6.00 Build 0)  -->
<svg version="1.1" id="Capa_1" xmlns="http://www.w3.org/2000/svg" xmlns:xlink="http://www.w3.org/1999/xlink" x="0px" y="0px"
	 viewBox="0 0 512 512" style="enable-background:new 0 0 512 512;" xml:space="preserve">
<style type="text/css">
	.st0{fill:#006C35;}
	.st1{fill:#FFFFFF;}
</style>
<rect y="71.1" class="st0" width="512" height="369.8"/>
<g transform="matrix(1.25 0 0 -1.25 0 45)">
	<g>
		<g>
			<path class="st0" d="M364.1-20.9H45.5C20.4-20.9,0-41.3,0-66.4v-204.8c0-25.1,20.4-45.5,45.5-45.5h318.6
				c25.1,0,45.5,20.4,45.5,45.5v204.8C409.6-41.3,389.2-20.9,364.1-20.9"/>
			<g>
				<path class="st1" d="M96.7-103.3c-0.5-7-1.1-19.3,4.8-20.6c7.2-0.7,3.2,12.2,5.8,14.5c0.5,1.1,1.4,1.1,1.5-0.3v-10.9
					c-0.1-3.5,2.3-4.6,4.1-5.3c1.9,0.1,3.2,0.1,3.9-1.8c0.3-6.3,0.6-12.6,0.9-18.9c0,0,4.4-1.3,4.6,10.6c0.2,7-1.4,12.8-0.5,14.1
					c0,1.3,1.7,1.4,2.9,0.8c1.9-1.3,2.7-3,5.6-2.3c4.4,1.2,7.1,3.4,7.2,6.8c-0.3,3.2-0.6,6.5-2,9.7c0.2,0.6-0.9,2.1-0.7,2.7
					c0.8-1.3,2-1.1,2.3,0c-0.8,2.5-1.9,4.9-3.8,5.9c-1.6,1.4-3.9,1.1-4.7-1.8c-0.4-3.3,1.2-7.3,3.6-10.5c0.5-1.3,1.2-3.4,0.9-5.2
					c-1.3-0.7-2.6-0.4-3.7,0.7c0,0-3.5,2.7-3.5,3.2c0.9,6,0.2,6.7-0.3,8.4c-0.4,2.3-1.5,3-2.3,4.6c-0.9,0.9-2.1,0.9-2.7,0
					c-1.6-2.7-0.8-8.5,0.3-11.1c0.8-2.4,2.1-3.9,1.5-3.9c-0.5-1.4-1.5-1-2.2,0.5c-1,3.2-1.3,8.1-1.3,10.2c-0.3,2.7-0.6,8.4-2.4,9.9
					c-1.1,1.5-2.7,0.8-3.2-0.6c-0.1-2.7-0.1-5.3,0.2-7.8c1.2-4.3,1.6-8.1,2.2-12.5c0.2-5.9-3.4-2.6-3.3,0.4
					c0.8,3.8,0.6,9.8-0.1,11.3c-0.6,1.5-1.3,1.9-2.7,1.7c-1.1,0.1-4-3.1-4.8-8.3c0,0-0.7-2.7-1-5.1c-0.4-2.7-2.2-4.6-3.4,0.4
					C99.1-110.2,98.5-101.2,96.7-103.3"/>
				<path class="st1" d="M116.2-132c-6.3-3.1-12.5-6-18.7-9c0.2,4.2,8.9,11.9,14.8,12C116.1-129.1,115.2-130.5,116.2-132"/>
				<path class="st1" d="M132.6-134.7c-0.2-0.4-1.1-0.2-1.8-0.2c-0.8,0-1.1,0.2-1.6,0.8c-0.2,0.7,0.4,1.3,0.7,1.8
					c0.4,0.6,2.3,1.2,2.9-0.5C133.2-133.5,133-134.3,132.6-134.7 M161.8-125.4c-0.1-0.9-0.3-1.8-0.4-2.7c-0.2-0.9-1.9-0.9-2,0.2
					c-0.8,3.5-3.9,3.9-5.8-1.5c-1.3-1-3.6-1.3-3.8,0.3c0.3,3.6-1.2,4.1-4.1,2.4c-0.9,7.1-1.9,14-2.8,21.1c1.2,0,2.3-0.9,3.4,0.5
					c-1.2,3.8-3.8,11.5-5.2,12.1c-0.7,0.8-1.3,0.3-2.2,0.1c-1.5-0.5-2.9-1.8-2.5-4.4c1.8-11,3-19.3,4.8-30.3c0.3-1.3-0.8-3-2.2-2.8
					c-2.4,1.6-2.9,4.8-7,4.7c-2.9,0-6.3-3.2-6.7-6.2c-0.5-2.4-0.7-5.1,0-7.2c2.1-2.5,4.5-2.2,6.7-1.7c1.8,0.7,3.2,2.5,3.8,2.1
					c0.4-0.5,0.1-6.3-8.3-10.8c-5.1-2.3-9.2-2.8-11.4,1.4c-1.4,2.6,0.1,12.5-3.2,10.2c-9.9-25.4,23.1-29,26.8-1
					c0.4,1.1,1.7,2.3,2,0.4c-0.8-25.3-25.5-27-29.7-19.1c-1,1.9-1.4,6-1.5,8.5c-0.6,5-3.2,3-3.6-1.9c-0.4-2.7-0.3-3.5-0.3-6.1
					c1.3-20,33.2-11.4,38.3,5.1c2.7,9.1-0.4,15.9,1,15.8c3.2-3.4,7.6-0.5,8.5,0.7c0.4,0.6,1.5,1,2.2,0.2c2.5-1.8,6.8-0.9,7.7,2.2
					c0.5,3,0.9,6.2,1,9.5C163.4-124.1,161.9-124.5,161.8-125.4"/>
				<path class="st1" d="M163-98L163-98c-0.6-0.1-1.4,0.4-1.7,1.2c-0.4,0.8-0.2,1.6,0.4,1.7h0c0.6,0.1,1.4-0.4,1.7-1.2
					C163.8-97.1,163.6-97.9,163-98 M164.7-98c2.3,1.4,1.6,4.3,0.4,5.7c-2,0.9-3.8,0.6-5.1,0c-1.6-1.6-2-4.1-0.7-5.6
					c1.3-0.6,2.5-1.9,1.7-2.5c-3.8-4.1-14.3-11.2-13.1-11.4c0.3-0.3,6.7-0.3,6.9,0c2,0.7,11.4,11.5,11.4,11.5
					c-0.5,0.4-0.9,0.7-1.4,1.1C164.2-98.9,164.3-98.5,164.7-98"/>
				<path class="st1" d="M98.1-150c-3.5-5.6-3.8-14-1.9-16.5c1-1.2,2.7-1.7,4-1.3c2.2,1,3.2,5.4,2.6,7.1c-0.7,1.1-1.3,1.3-2,0.4
					c-1.5-3.2-2.2-1-2.3,0.8c-0.2,3.3,0.1,6.4,0.4,8.9C99.3-148.2,98.9-149,98.1-150"/>
				<path class="st1" d="M248.4-141c-3.4,7.3-8.1,14.6-9.6,17.3c-1.5,2.8-12.8,19.2-14.5,21c-3.7,4.4,6-1.8-1.2,6.8
					c-2.7,2.4-2.9,2.5-5.2,4.4c-1.1,0.8-3.9,2.3-4.4-0.2c-0.3-2.2-0.1-3.4,0.3-5.2c0.3-1.2,2-3.2,2.9-4.4
					c11.5-15.4,21.6-31,31.5-50.6C249.7-150.9,249.3-142.2,248.4-141"/>
				<path class="st1" d="M233.5-165.5c-0.7-0.8,1.6-4,4.7-4c5.1,0.6,9.5,3.4,13.6,10.9c1.1,1.7,3,5.5,3.1,8.3
					c0.4,16.9-0.8,30.1-3.4,42.3c-0.2,1.2-0.1,2.6,0.1,2.9c0.3,0.4,1.4,0,2,1c0.9,0.9-2.3,8.2-4.1,11c-0.6,1.3-0.9,2.1-1.9-0.1
					c-1.1-1.8-1.9-5-1.8-8c2.4-16.7,3.1-31.2,4.7-47.9c0.1-1.6-0.1-4-1.2-4.9C245.4-158.1,239.7-163.2,233.5-165.5"/>
				<path class="st1" d="M301.6-165.4c-3.6-2.1-3.6-4.5-0.7-4.6c5,0.6,11,1,15.1,7.2c1.1,1.7,2.4,6.4,2.5,9.3
					c0.4,16.9-0.2,29.5-2.8,41.7c-0.2,1.2-0.7,3.9-0.5,4.3c0.3,0.8,2-0.1,2.6,0.9c0.9,0.9-4.3,7.5-6,10.3c-0.6,1.3-0.9,2.1-1.9-0.1
					c-1.1-1.8-1.5-5.1-1.1-8c2.7-18.1,4.7-31.7,5.1-47.7c-0.2-1.5-0.3-2.3-1-4.3c-1.6-2-3.3-4.6-5-5.8S302.8-164.5,301.6-165.4"/>
				<path class="st1" d="M304.3-149.2c0,4.2,0.1,7.9-0.1,11c-0.1,3.2-0.7,5.7-1.8,8c-1,2.4-0.4,4.3-0.9,6.9
					c-0.5,2.6-0.4,6.4-1.1,9.4c-0.2,1.2-0.8,5-0.6,5.3c0.3,0.9,1.4,0,2,1c0.8,0.9-2.9,10.5-4.8,13.3c-0.7,1.2-1.9,0.8-3.4-1.2
					c-1.4-1.3-0.9-4.3-0.4-7.2c3.6-18.9,6.3-36,5.7-53.9C298.8-158.2,304.4-152.1,304.3-149.2"/>
				<path class="st1" d="M277.6-125.8c-2.3,0-7,4.4-8.4,7c-0.5,1.5-0.2,2.9,0.3,3.8c0.8,0.5,2.1,1.2,3.1,0.6c0,0,1-1.4,0.8-1.6
					c1.2-0.6,1.8-0.3,1.9,0.3c0.1,0.9-0.4,1.4-0.4,2.4c0.5,2.7,3.5,3,4.7,1.4c0.8-1,1.1-3.2,1.3-4.7c0-0.8-1.2,0.1-1.9-0.1
					c-0.7-0.2-0.9-1-0.9-1.7C277.9-120.4,277.6-123.5,277.6-125.8"/>
				<path class="st1" d="M235.6-153.9c0.6,5.7-0.2,16-0.3,19.4c-0.2,8-1.5,23.5-2.2,26.1c-0.7,4.9,2-0.5,1.6,2.3
					c-0.9,4.9-3.6,8.2-6.7,12.6c-1,1.4-1,1.7-2.6-0.4c-1.8-4-0.2-6.7,0.2-9.8c2.3-10.1,3.6-19.3,4.2-28.5c0.6-9.2,0.8-19,0.3-28.7
					C231.9-160.9,234.6-158,235.6-153.9"/>
				<path class="st1" d="M312.1-144.7c-4,6.7-10.1,14-11.7,16.7c-1.6,2.7-15.3,20.4-17.1,22.1c-5,5.3,2.3,0.9-0.9,4.9
					c-2.8,3-3.6,4-5.9,5.8c-1.2,0.8-1.9,2.2-2.3-0.3c-0.1-2.2-0.3-4.7-0.2-6.5c0-1,1.1-2.9,2-4.1c12.1-14.9,25.4-30.1,36-49.3
					C313.5-154.5,313-145.9,312.1-144.7"/>
				<path class="st1" d="M168.6-97.6c-3.7-10.4,2.1-21.9,6.1-20.8c2.9-1.2,4.7,4.3,5.9,10.3c0.8,1.7,1.4,1.9,1.8,1
					c-0.1-8,0.6-9.7,2.6-12.2c4.6-3.5,8.3-0.5,8.6-0.2l3.6,3.6c0.8,0.8,1.8,0.9,3,0.1c1.1-1,0.9-2.7,3.3-3.9c2-0.8,6.1-0.2,7.1,1.5
					c1.3,2.2,1.6,3,2.2,3.8c0.9,1.2,2.5,0.7,2.5,0.3c-0.1-0.7-1.1-1.4-0.4-2.6c1.1-0.8,1.4-0.3,2-0.1c2.3,1.1,4.1,6.2,4.1,6.2
					c0.1,1.9-0.9,1.7-1.6,1.3c-0.9-0.5-0.9-0.7-1.8-1.3c-1.1-0.2-3.3-0.9-4.4,0.8c-1.1,2-1.1,4.8-2,6.9c0,0.2-1.5,3.2-0.1,3.4
					c0.7-0.1,2.2-0.5,2.4,0.7c0.7,1.2-1.6,4.6-3.1,6.4c-1.4,1.5-3.2,1.7-5,0.1c-1.3-1.2-1.1-2.5-1.3-3.7c-0.3-1.4-0.3-3.2,1.2-5
					c1.3-2.5,3.6-5.7,2.8-10.2c0,0-1.4-2.1-3.7-1.9c-1,0.2-2.6,0.6-3.4,6.9c-0.6,4.7,0.1,11.4-1.9,14.5c-0.7,1.9-1.3,3.7-3,0.5
					c-0.5-1.3-2.5-3.2-1-7.1c1.2-2.5,1.7-6.6,1.1-11.1c-0.8-1.3-1-1.7-2.1-3c-1.5-1.7-3.2-1.2-4.5-0.6c-1.2,0.8-2.1,1.2-2.7,3.8
					c0.1,4.1,0.3,10.8-0.4,12.2c-1.1,2.2-2.9,1.4-3.7,0.7c-3.7-3.4-5.6-9.2-6.7-13.8c-1-3.4-2.1-2.4-2.9-1
					C171.1-109.1,170.9-95.3,168.6-97.6"/>
				<path class="st1" d="M202.9-148.9c-2.3-0.8-4.5-1.4-4.5-4.7c0.8-4.6-1.2-3-2.4-2.4c-1.4,1-5.4,3.5-6,8.7
					c-0.1,1.3,0.9,2.3,2.5,2.3c2.4-0.7,5.9-0.7,8.9-1C204-146.1,205.2-148.1,202.9-148.9 M211.5-127.3c0.3,0.5,1.4,0.5,2.4-0.1
					c1-0.6,1.5-1.5,1.2-2l0,0c-0.3-0.5-1.4-0.5-2.4,0.1C211.7-128.7,211.2-127.8,211.5-127.3z M228-140l-21.4,0.1
					c-1.1,0.4-0.8,0.8,0,1.1c5.1,0.7,14.2,2.2,14.8,10.9c-0.1,4.6-1.9,7.5-7.5,8.4c-4.1-0.3-7-4.3-6.5-8.7c-0.2-1.2,0.4-3.5-0.8-3.7
					c-7.9-0.7-16.4-5.6-16.7-9.2c-0.5-0.3-1.5,0.6-1.4,2.1c-0.3,6.1-2.3,13-5.4,18.3c-2.5,2.5-1.7,1.7-3.4,0.5
					c-1.1-1.2-1.3-2.1-1.2-4.5c0-0.1,2-5.7,3.7-9.6c1.1-4,2.2-8.6,1.4-12.9c-2.6-5.7-7.9-10.9-13.1-13.7c-2.6-0.9-4.9-0.5-5.5,0
					c-1.6,1.1-1.5,3.1-1.4,3.1c4.3,3,9.3,5.4,13.1,13.6c1.1,3.1,1.5,5,0.4,9.8c-0.5,1.8-1,3.3-2.2,4.5c0.7,0.4,2.7-1.1,3-0.2
					c-0.4,2.3-2,5.4-3.8,6.9c-1.5,1.4-3.2,1.6-4.6,0.3c-1.6-0.9-1.9-4.1-1.2-6.8c0.8-2.1,3.1-2.4,4.8-6.7c0-0.1,0.6-3.1-0.3-4.3
					c-0.7-2.1-9.4-8.9-9.9-9.2c-0.2-0.3-0.1,0.1-0.2,1.3c-0.1,1.4,0.6,4.7,0.4,4.7c-2.8-1.8-3.8-7.4-4.3-9.1
					c-7.2-5-15.3-8.6-20-13.7c-2.4-3.8,16.8,4.4,19.1,5.4c0.5-0.4,0.4-2.1,1.8-3.6c2-2.7,6.2-4.4,10.4-3.3c7,2.5,11,7.2,15,12.5
					c0.6,0.9,1.5,1.5,2.3,0.9c2.8-6.3,10.9-10.7,21.3-11.2c2.4,2.9,1.3,4.4,0.3,5c0,0.1-5.2,2-5.9,4c-0.5,1.8,0.7,3.3,3,4.5
					c6.7,0.8,13.3,1.7,19.7,3.8c0.1,2.1,1.3,5.3,2.2,6.7c0.8,1.4,1.3,1,1.1,1.5L228-140z"/>
				<path class="st1" d="M123.6-97.7c2.5-1.2,7.1-0.7,6.9,3.3c0,0.3-0.1,1.5-0.1,1.9c-0.5,1.2-1.9,0.9-2.2-0.3
					c-0.1-0.4,0.2-1-0.2-1.2c-0.2-0.2-1-0.1-1,1c0,0.4-0.3,0.7-0.4,0.9c-0.2,0.1-0.3,0.1-0.5,0.1c-0.3,0-0.3-0.1-0.5-0.4
					c-0.1-0.3-0.2-0.6-0.2-0.9c0-0.4-0.2-0.5-0.5-0.6c-0.3,0-0.3,0-0.5,0.1c-0.2,0.2-0.4,0.2-0.4,0.5c0,0.3-0.1,0.8-0.2,1
					c-0.1,0.2-0.4,0.3-0.6,0.3c-1.3,0-1.4-1.5-1.4-2.1C121.9-94.2,121.8-96.9,123.6-97.7"/>
				<path class="st1" d="M195.8-128.2c2.5-1.2,8.3-0.5,6.9,3.3c0,0.4-0.1,1.5-0.1,1.9c-0.5,1.2-1.9,0.9-2.2-0.3
					c-0.1-0.4,0.2-1-0.2-1.2c-0.2-0.2-1-0.1-1,1c0,0.4-0.3,0.7-0.4,0.9c-0.2,0.1-0.3,0.1-0.5,0.1c-0.3,0-0.3-0.1-0.5-0.4
					c-0.1-0.3-0.2-0.6-0.2-0.9c0-0.4-0.2-0.5-0.5-0.6c-0.3,0-0.3,0-0.5,0.1c-0.2,0.2-0.4,0.2-0.4,0.5c0,0.3-0.1,0.8-0.2,1
					c-0.1,0.2-0.4,0.3-0.6,0.3c-1.4,0-1.4-1.5-1.4-2.1C194-124.7,194-127.4,195.8-128.2"/>
				<path class="st1" d="M237.9-115.6c2.5-1.2,7.1-0.7,6.9,3.3c0,0.3-0.1,1.5-0.1,1.9c-0.5,1.2-1.9,0.9-2.2-0.3
					c-0.1-0.4,0.2-1-0.2-1.2c-0.2-0.2-1-0.1-1,1c0,0.4-0.3,0.7-0.4,0.9c-0.2,0.1-0.3,0.1-0.5,0.1c-0.3,0-0.3-0.1-0.5-0.4
					c-0.1-0.3-0.2-0.6-0.2-0.9c0-0.4-0.2-0.5-0.5-0.6c-0.3,0-0.3,0-0.5,0.1c-0.1,0.2-0.3,0.2-0.3,0.5s-0.1,0.8-0.2,1
					c-0.1,0.2-0.4,0.3-0.6,0.3c-1.3,0-1.4-1.5-1.4-2.1C236.1-112,236.1-114.8,237.9-115.6"/>
				<path class="st1" d="M259.7-147.3c-4.3-4.8-2.4-12.8-1.4-14.6c1.4-2.8,2.6-4.6,5.3-6c2.5-1.8,4.4-0.7,5.5,0.6
					c2.5,2.6,2.6,9.3,3.7,10.6c0.8,2.4,2.9,2,3.9,0.9c1-1.4,2.1-2.3,3.6-3.1c2.4-2.1,5.2-2.5,7.9-0.6c1.9,1.1,3.1,2.4,4.2,5.2
					c1.2,3.3,0.5,18.5,0.3,27.5c-0.1,0.7-2.4,12.4-2.4,12.5c0,0.1-0.3,6-0.6,7.4c0,0.6-0.2,0.7,0.4,0.6c0.6-0.5,0.7-0.6,1.1-0.7
					c0.6-0.1,1.2,1,0.8,2c-2,3.6-3.9,7.2-5.9,10.8c-0.5,0.5-1.1,1-1.8-0.1c-0.7-0.6-1.5-1.8-1.5-3.2c0.2-2.6,0.6-5.2,0.8-7.7
					c0.8-4.4,1.6-8.8,2.3-13.2c0.8-9.4,0.9-17.1,1.7-26.5c-0.1-4-1.3-7.5-2.5-8c0,0-1.8-1-2.9,0.1c-0.9,0.4-4.3,5.7-4.3,5.7
					c-1.8,1.6-2.9,1.1-4.2,0c-3.5-3.3-5-9.6-7.4-13.9c-0.6-1-2.3-1.8-4.2,0.1C257.5-154.3,260.3-144.9,259.7-147.3"/>
				<path class="st1" d="M239-92.5c2.2-0.9,3.8-5.4,3.3-7.6c-0.4-2.7-1.6-5.6-2.4-5.2c-0.9,0.3,0.6,2.7-0.3,5.1
					c-0.5,1.6-3.5,4.5-3.2,5.4C235.8-93,237.7-92.2,239-92.5"/>
				<path class="st1" d="M266.8-150c0.5,5.4-0.3,8.6-0.5,11.8c-0.1,3.1-3.6,27.2-4.3,29.6c-0.8,4.5,3.3,0.6,2.9,3.2
					c-1.4,3.3-5,8.1-6.2,11c-0.7,1.2-0.4,2.3-1.9,0.3c-1.4-4.6-1.9-8.4-1.4-11.2c3.6-18.9,7.3-34.6,6.7-52.5
					C264-157.8,266-153.9,266.8-150"/>
				<path class="st1" d="M304.5-100.1c2-1,3.2-6.6,3-8.2c-0.4-2.9-1.5-6.1-2.2-5.7c-0.8,0.4,0.2,4.3-0.2,5.6
					c-0.4,1.7-3.2,4.9-2.9,5.8C301.5-100.6,303.3-99.7,304.5-100.1"/>
				<path class="st1" d="M155-139.8c1.9-0.7,3-4.8,2.8-6c-0.4-2.1-1.4-4.5-2.1-4.2c-0.8,0.3,0.2,3.2-0.2,4.1
					c-0.2,2.2-2.8,3.3-2.8,4.3C152.2-139.9,153.9-139.6,155-139.8"/>
				<path class="st1" d="M103.6-91.2c2.8-0.9,3-5,2.8-6.2c-0.4-2.2-1.4-4.6-2.1-4.3c-0.8,0.3,0,3.3-0.4,4.2
					c-0.4,1.3-2.8,3.7-2.5,4.4C100.8-91.6,102.4-90.9,103.6-91.2"/>
				<path class="st1" d="M159.6-110.9c-2.2-1.2-3-4.7-1.7-6.7c1.3-1.8,3.3-1.1,3.5-1.1c2.1-0.3,3.4,4,3.4,4s0.1,1.2-2.5-1.1
					c-1.1-0.2-1.2,0.2-1.5,0.8c-0.2,1.1-0.2,2.2,0.3,3.3C161.7-110.6,160.8-110.2,159.6-110.9"/>
				<path class="st1" d="M176-89.6c-1.1-0.7-3.3-3-3.3-5.6c-0.1-1.5-0.3-1.5,0.6-2.4c0.7-1,1.4-0.9,2.8-0.2c0.8,0.6,1.1,1,1.3,2
					c0.3,1.7-1.8-0.8-2,1.1c-0.5,1.7,0.9,2.4,2.1,4.1C177.6-89.5,177.6-88.6,176-89.6"/>
				<path class="st1" d="M189.2-91.9c-0.5-1-1-6.5-0.9-6.5c-0.4-1.6,1.7-2.3,2.6-0.2c1.4,3.8,1.4,5.4,1.5,7.1
					C191.9-89.1,190.3-89.2,189.2-91.9"/>
				<path class="st1" d="M272.1-134.1c0.3,0.3,11.7,8.4,11.7,8.4c1.2,0.4,0.9-4.2,0.4-4.2c0.2-0.9-11.3-8.7-12.1-8.4
					C271.6-138.6,271-135.1,272.1-134.1"/>
				<path class="st1" d="M282.5-134.1c2-1,2.8-6.9,2.6-8.5c0.1-3.1-1.9-5.6-2.7-5.2c-0.8,0.4,0.1,3.9-0.3,5.1
					c-0.4,1.7-2.1,5-1.9,5.9C279.7-134.8,281.3-133.8,282.5-134.1"/>
				<path class="st1" d="M214.7-159.4c0.8,1.2,3.2,2.8,3.3,2.8c1.1,0.6,2.2-0.4,2.2-0.4c0.2-1.1-0.7-2.2-0.4-3.7
					c0.3-0.6,0.4-1.3,1.5-1c1.8,1.4,3.5,1.5,5.3,1.6c1.4-0.1,1.4-2.4,0.6-2.4c-3.3-0.7-4.8-1.6-7.2-2.5c-1.1-0.7-2.1,0.2-2.1,0.3
					c0,0.1-0.7,0.6-0.2,2.1c0.1,1.2-0.4,1.9-1.4,1.7c-0.8-0.4-1.4-0.7-1.8,0.2C214.2-160.1,214.2-159.8,214.7-159.4"/>
				<path class="st1" d="M294.5-162.6c0.5-0.6,0.8-1.2,0-2.2c-0.8-0.7-1.4-1.1-2.2-1.9c-0.4-0.6-0.6-1.6,0.5-1.9
					c2.1-0.6,7.1,2.6,7.1,2.7c0.8,0.6,0.5,1.7,0.5,1.7c-0.5,0.5-1.5,0.2-2.2,0.3c-0.3,0-1.4,0.2-0.9,1.1c0.4,0.6,0.6,1,0.9,1.7
					c0.3,0.7,0,1.2-1.1,1.6c-1.2,0.2-1.7,0.1-3.1,0c-0.7-0.1-1-0.5-1.1-1.4C292.9-162.1,293.7-162,294.5-162.6"/>
				<path class="st1" d="M290.1-225.7h-17.1v5.7c0,3.1-2.5,5.7-5.7,5.7c-3.1,0-5.7-2.5-5.7-5.7v-5.7h-91h-11.4h-34.1
					c0,0,0-11.4,34.1-11.4h102.4v-5.7c0-3.1,2.5-5.7,5.7-5.7c3.1,0,5.7,2.5,5.7,5.7v5.7h11.4v-5.7c0-3.1,2.5-5.7,5.7-5.7
					c3.1,0,5.7,2.5,5.7,5.7v11.4C295.8-228.2,293.3-225.7,290.1-225.7"/>
			</g>
		</g>
	</g>
</g>
</svg>
