<svg xmlns="http://www.w3.org/2000/svg" height="68pt" version="1.1" viewBox="-2 0 68 68.081793" width="68pt">
<g id="surface1">
<path d="M 1.9375 57.269531 C 7.730469 54.097656 10.875 54.773438 13.855469 56.269531 C 14.234375 56.496094 15.457031 57.222656 17.003906 57.957031 C 18.402344 58.730469 19.910156 59.285156 21.472656 59.605469 C 22 59.726562 22.535156 59.792969 23.074219 59.804688 L 23.683594 59.804688 C 26.785156 59.699219 29.8125 58.839844 32.511719 57.308594 C 34.363281 56.210938 36.402344 55.480469 38.53125 55.148438 L 39.316406 55.085938 C 39.730469 55.058594 40.144531 55.058594 40.5625 55.085938 L 40.726562 55.085938 C 42.265625 55.394531 43.753906 55.925781 45.132812 56.671875 L 46.132812 57.222656 C 48.527344 58.796875 51.304688 59.699219 54.171875 59.816406 C 57.273438 59.710938 60.304688 58.851562 63 57.316406 C 63.625 57.003906 63.875 56.246094 63.5625 55.621094 C 63.25 54.996094 62.492188 54.746094 61.863281 55.058594 C 56.320312 57.972656 53 57.695312 50.164062 56.449219 L 60.15625 30.839844 C 60.40625 30.195312 60.085938 29.472656 59.449219 29.21875 C 59.367188 29.191406 59.289062 29.167969 59.203125 29.152344 L 33.148438 24.644531 L 33.148438 40.625 C 33.148438 41.316406 32.589844 41.875 31.898438 41.875 C 31.210938 41.875 30.648438 41.316406 30.648438 40.625 L 30.648438 24.660156 L 4.71875 29.390625 C 4.039062 29.519531 3.597656 30.167969 3.722656 30.847656 C 3.734375 30.921875 3.753906 30.996094 3.785156 31.0625 L 12.238281 52.960938 C 9.375 52.164062 5.804688 52.289062 0.722656 55.085938 C 0.121094 55.425781 -0.0898438 56.195312 0.253906 56.800781 C 0.597656 57.40625 1.371094 57.613281 1.972656 57.269531 Z M 48.578125 31.953125 C 50.9375 31.953125 52.847656 33.863281 52.847656 36.222656 C 52.847656 38.578125 50.9375 40.492188 48.578125 40.492188 C 46.21875 40.492188 44.308594 38.578125 44.308594 36.222656 C 44.308594 33.863281 46.222656 31.953125 48.578125 31.953125 Z M 10.960938 36.207031 C 10.960938 33.847656 12.875 31.9375 15.230469 31.9375 C 17.589844 31.9375 19.5 33.847656 19.5 36.207031 C 19.5 38.566406 17.589844 40.476562 15.230469 40.476562 C 12.875 40.476562 10.960938 38.566406 10.960938 36.207031 Z M 10.960938 36.207031 " style=" stroke:none;fill-rule:nonzero;fill:rgb(0%,0%,0%);fill-opacity:1;" />
<path d="M 1.9375 65.382812 C 8.875 61.640625 12.007812 63.324219 15.667969 65.382812 C 18.0625 66.964844 20.84375 67.863281 23.710938 67.980469 C 26.808594 67.875 29.835938 67.019531 32.535156 65.484375 C 39.480469 61.738281 42.613281 63.425781 46.269531 65.484375 C 48.660156 67.066406 51.441406 67.960938 54.308594 68.082031 C 57.414062 67.976562 60.441406 67.121094 63.136719 65.585938 C 63.800781 65.234375 64.050781 64.410156 63.699219 63.75 C 63.347656 63.085938 62.523438 62.835938 61.863281 63.1875 C 54.371094 67.070312 50.976562 65.171875 47.371094 63.1875 C 43.757812 61.199219 39.417969 58.769531 31.289062 63.1875 C 23.796875 67.070312 20.398438 65.171875 16.792969 63.1875 C 13.183594 61.199219 8.828125 58.769531 0.675781 63.1875 C 0.0703125 63.53125 -0.136719 64.300781 0.207031 64.90625 C 0.550781 65.507812 1.320312 65.71875 1.921875 65.375 Z M 1.9375 65.382812 " style=" stroke:none;fill-rule:nonzero;fill:rgb(0%,0%,0%);fill-opacity:1;" />
<path d="M 13.167969 25.230469 L 31.398438 22.074219 L 31.898438 21.988281 L 32.398438 22.074219 L 50.628906 25.230469 L 50.835938 25.230469 C 51.527344 25.230469 52.089844 24.675781 52.089844 23.984375 L 52.089844 15.246094 C 52.089844 14.746094 51.792969 14.292969 51.339844 14.09375 L 42.414062 10.25 L 42.414062 1.246094 C 42.414062 0.5625 41.851562 0 41.160156 0 L 22.636719 0 C 21.945312 0 21.386719 0.5625 21.386719 1.246094 L 21.386719 10.25 L 12.472656 13.992188 C 12.015625 14.195312 11.722656 14.644531 11.722656 15.144531 L 11.722656 23.882812 C 11.65625 24.574219 12.164062 25.183594 12.851562 25.246094 C 12.957031 25.253906 13.0625 25.25 13.167969 25.230469 Z M 13.167969 25.230469 " style=" stroke:none;fill-rule:nonzero;fill:rgb(0%,0%,0%);fill-opacity:1;" />
</g>
</svg>